<?xml version="1.0" encoding="UTF-8"?>
<svg id="Layer_1" data-name="Layer 1" xmlns="http://www.w3.org/2000/svg" viewBox="0 0 2065.36 1500">
  <defs>
    <style>
      .cls-1 {
        fill: #ffffff;
      }

      .cls-2 {
        fill: #ffffff;
      }

      .cls-3 {
        fill: none;
        stroke: #ed1c24;
        stroke-miterlimit: 10;
        stroke-width: 3.16px;
      }
    </style>
  </defs>
  <g>
    <path class="cls-1" d="M342.1,1056.12v97.57h-35.37v-161.54h35.44l56.7,103.43,57.69-103.43h34.5v161.54h-35.37v-97.16l-56.42,102.18-57.18-102.59Z"/>
    <path class="cls-1" d="M571.36,1072.86c0-47.13,37.73-83.8,86.96-83.8s86.96,36.67,86.96,83.8-37.73,84.05-86.96,84.05-86.96-36.93-86.96-84.05ZM709.78,1072.93c0-29.75-23.08-50.82-51.55-50.82s-51.55,21.07-51.55,50.82,23.08,50.82,51.55,50.82,51.55-21.07,51.55-50.82Z"/>
    <path class="cls-1" d="M813.48,1136.88l19.1-27.51c16.18,9.41,35.88,14.68,54.3,14.64,17.24-.04,28.02-6.2,28.64-16.39.6-9.76-5.54-13.33-24.71-17.55l-20.09-4.42c-36.19-7.98-50.73-24.42-50.79-48.86-.06-26.87,27.4-46.77,63.04-46.82,24.16-.04,47.44,7.31,64.13,17.35l-17.87,27.44c-13.12-7.72-27.21-12.82-42.86-12.87-16.7-.06-28.46,5.65-28.39,15.96.06,9.09,6.99,13.52,23.01,17.01l22.11,4.82c34.74,7.57,49.13,22.31,49.18,47.95.06,27.93-26.85,48.29-66.99,48.34-25.79.03-53.17-7.44-71.83-19.09Z"/>
    <path class="cls-1" d="M1063.49,1024.39h-51.46l-.2-32.24h138.09v32.24h-51.41v129.3h-35.02v-129.3Z"/>
    <path class="cls-1" d="M1222.57,992.15h127.79v32.19h-92.42v28.26l64.89.16v31.19h-64.89v37.48h92.62v32.26h-127.99v-161.54Z"/>
    <path class="cls-1" d="M1418.89,1136.88l19.1-27.51c16.18,9.41,35.88,14.68,54.3,14.64,17.24-.04,28.02-6.2,28.64-16.39.6-9.76-5.54-13.33-24.7-17.55l-20.09-4.42c-36.19-7.98-50.73-24.42-50.79-48.86-.06-26.87,27.4-46.77,63.05-46.82,24.16-.04,47.44,7.31,64.13,17.35l-17.87,27.44c-13.12-7.72-27.21-12.82-42.86-12.87-16.7-.06-28.46,5.65-28.39,15.96.06,9.09,6.99,13.52,23.01,17.01l22.11,4.82c34.74,7.57,49.13,22.31,49.18,47.95.06,27.93-26.85,48.29-67,48.34-25.79.03-53.17-7.44-71.83-19.09Z"/>
    <path class="cls-1" d="M1668.9,1024.39h-51.46l-.2-32.24h138.09v32.24h-51.41v129.3h-35.02v-129.3Z"/>
  </g>
  <g>
    <polygon class="cls-2" points="1260.23 773.22 930.6 580.08 937.7 568.01 1267.33 761.15 1260.23 773.22"/>
    <ellipse class="cls-1" cx="649.52" cy="458.8" rx="13.26" ry="13.23"/>
    <ellipse class="cls-1" cx="711.15" cy="410.92" rx="9.21" ry="9.19"/>
    <ellipse class="cls-1" cx="844.05" cy="480.4" rx="9.21" ry="9.19"/>
    <ellipse class="cls-1" cx="898.04" cy="391.72" rx="9.21" ry="9.19"/>
    <ellipse class="cls-2" cx="848.96" cy="386.28" rx="9.21" ry="9.19"/>
    <ellipse class="cls-2" cx="832.66" cy="436.88" rx="9.21" ry="9.19"/>
    <path class="cls-2" d="M1002.6,759.49c-68.41,46.94-152.5,90.31-220.9,110.21l-.2-.56c-20.93,6.73-43.55,10.38-67.17,10.38-107.53,0-194.73-76.1-194.73-169.92s87.19-169.92,194.73-169.92c3.58,0,7.11.08,10.63.25,116.73,5.6,182.57,46.6,194.3,54.32-.79-.42-1.58-.84-2.34-1.27.2.14.34.23.42.31-.45-.25-.93-.51-1.41-.76-.06-.03-.11-.06-.17-.08-22.74-11.76-49.25-14.61-77.24-14.27h-.79c-.48,0-.99.06-1.47.08-6.74.34-13.62,1.04-20.56,2.17-21.55,3.49-41.27,10.44-58.11,19.84-13.54-4.08-28.12-6.3-43.27-6.3-73.17,0-132.5,51.75-132.5,115.64s59.32,115.61,132.5,115.61c15.06,0,29.56-2.2,43.05-6.25l.08.25c39.04-10.81,88.8-33.12,143.3-60.42,17.15-8.58,34.75-17.65,52.67-27.02l49.17,27.72Z"/>
    <path class="cls-2" d="M966.06,411.57c-42.06,0-76.19,34.02-76.19,76.01s34.13,75.98,76.19,75.98,76.19-34.02,76.19-75.98-34.1-76.01-76.19-76.01ZM966.06,532.66c-24.96,0-45.22-20.18-45.22-45.08s20.25-45.11,45.22-45.11,45.22,20.18,45.22,45.11-20.25,45.08-45.22,45.08Z"/>
    <path class="cls-1" d="M823.89,387.3c0,24.06-18.5,43.82-42.14,45.84l-.31-18.8c13.37-1.8,23.7-13.2,23.7-27.04,0-15.08-12.27-27.3-27.39-27.3s-27.36,12.21-27.36,27.3c0,8.75,4.12,16.52,10.52,21.5l-13.15,13.45c-9.87-8.44-16.14-20.97-16.14-34.95,0-25.41,20.68-46.01,46.12-46.01s46.15,20.6,46.15,46.01Z"/>
    <path class="cls-2" d="M932.43,720.4c-9.7,11.14-21.89,20.83-36.19,28.14-53.71,27.44-117.07,11.12-141.47-36.44-11.96-23.27-12.38-49.7-3.41-73.85l33.23,17.08c-4.63,15.2-3.81,31.29,3.5,45.53,16.73,32.56,61.16,43.2,99.27,23.75,8.83-4.5,16.56-10.24,22.99-16.8l22.09,12.58Z"/>
    <ellipse class="cls-1" cx="951.4" cy="855.23" rx="15.42" ry="15.39"/>
    <ellipse class="cls-2" cx="793.49" cy="492.51" rx="13.26" ry="13.23"/>
    <ellipse class="cls-2" cx="1071.45" cy="529.51" rx="13.26" ry="13.23"/>
    <path class="cls-1" d="M1542.45,695.69c0,96.22-87.5,174.2-195.49,174.2-4.34,0-8.66-.14-12.95-.39h-.23c-51.02-1.11-119.56-17.93-176.4-45.81-4.83-2.37-9.55-5.01-14.18-7.73-130.45-76.76-252.83-147.15-343.3-192.36l17.04-9.48c77.8,38.75,196.14,107,320.82,179.86l.16.09c7.47,4.33,15.15,8.29,23.13,11.58,15.31,6.31,31.82,11.1,48.21,13.71,33,5.35,65.53,1.94,86.71-15.28l.11-.28c15.66,5.85,32.83,9.09,50.86,9.09,72.64,0,131.54-52.46,131.54-117.19s-57.07-115.55-128.15-117.16l.03-.42c-54.05-3.12-112.27,13.42-180.34,43.37-5.84,2.56-11.76,5.26-17.77,8.02-10.01,4.62-20.23,9.48-30.66,14.61l-51.11-31.01c96.73-62,188.91-94.47,273.12-91.97v.39c1.13-.03,2.23-.03,3.36-.03,107.98,0,195.49,77.98,195.49,174.2Z"/>
    <path class="cls-1" d="M837.33,578.18c.52-.04.78-.01,1.17-.04,27.98-.34,54.5,2.5,77.24,14.27.06.03.11.06.17.08.79.48,1.38.82,1.52.84.93.48,1.86.98,2.76,1.52-.25-.17-.59-.39-.96-.65,52.92,28.65,117.57,67.99,187.17,111.56,10.47,6.53,21.02,13.17,31.68,19.9,22.29,14.04,43.27,26.43,60.08,35.29,15.88,8.36,34.95,9.23,51.2,1.55,18.79-8.89,25.84-24.96,25.84-45,0-32.59-30.86-59.01-68.89-59.01-14.78,0-28.49,4-39.72,10.81l-26.94-17.22c6.8-4.98,14.39-9.23,22.62-12.61,1.72-.7,3.47-1.38,5.25-2,12.41-4.36,26.06-6.78,40.42-6.78,56.36,0,102.06,37.26,102.06,83.25s-43.19,90.37-99.63,72.47c-80.45-25.53-258.67-175.77-373.05-208.22"/>
  </g>
</svg>